<svg width="167" height="156" xmlns="http://www.w3.org/2000/svg" fill="none">

 <g>
  <title>Layer 1</title>
  <path id="svg_1" fill="#FFBCA2" d="m133.174,0.01904l-98.8029,0l0,11.46986l-34.35352,0l0,53.8005c0,20.7926 23.19142,37.9026 45.94922,39.6826c7.4711,8.01 20.6121,13.829 32.3079,16.31l0,14.062c-11.1844,3.437 -31.1628,11.514 -32.3079,20.314l76.7562,0c-1.156,-8.8 -23.1691,-16.888 -34.3757,-20.314l0,-14.062c11.7407,-2.481 25.4707,-8.3 32.9527,-16.31c22.747,-1.78 44.915,-18.89 44.915,-39.6826l0,-53.8005l-33.041,0l0,-11.46986zm-122.6058,21.66036l23.0024,0l0,46.3468c0,9.1447 2.357,17.8445 6.5039,25.6765c-17.2102,-5.4847 -29.5063,-19.6134 -29.5063,-36.1452l0,-35.8781zm63.05235,40.61701l-16.25691,34.39634l5.3121,-29.62361l-8.08394,-3.20682l13.14835,-27.80956l-10.11798,-2.47135l19.74146,-34.10959l-8.00811,27.74595l8.51838,3.60772l-12.98801,27.58229l8.73465,3.88864zm52.56045,32.88589c4.169,-8.188 6.559,-17.2438 6.559,-26.8224l0,-46.3801l23.058,0l0,35.4442c0,17.2772 -12.352,32.0289 -29.617,37.7583z" clip-rule="evenodd" fill-rule="evenodd"/>
 </g>
</svg>