<svg width="500" height="165" viewBox="0 0 500 165" fill="none" xmlns="http://www.w3.org/2000/svg">
<circle cx="104.169" cy="82.1687" r="80.8434" stroke="white" stroke-width="2.6506"/>
<path d="M77.5835 40.7637L106.749 118H91.6021L82.7935 94.2598H57.3345L48.5259 118H33.3794L62.5444 40.7637H77.5835ZM70.064 56.7158L61.3091 83.4639H78.8188L70.064 56.7158ZM131.234 71.7012C132.523 69.8034 133.723 68.2458 134.833 67.0283C135.907 65.8467 137.035 64.8799 138.217 64.1279C139.398 63.3402 140.58 62.7135 141.762 62.248C142.979 61.7467 144.197 61.4066 145.414 61.2275C146.631 61.0127 147.831 60.9053 149.013 60.9053C150.015 60.9053 150.982 60.9769 151.913 61.1201C152.88 61.2275 153.775 61.3708 154.599 61.5498C154.491 62.5524 154.348 63.6266 154.169 64.7725C153.99 65.8825 153.793 67.0104 153.578 68.1562C153.363 69.3021 153.113 70.43 152.826 71.54C152.575 72.6501 152.307 73.6885 152.02 74.6553C149.979 74.2614 148.207 73.9391 146.703 73.6885C145.199 73.402 143.856 73.2588 142.675 73.2588C141.565 73.2588 140.544 73.4199 139.613 73.7422C138.718 74.0286 137.823 74.5479 136.928 75.2998C136.032 76.0518 135.101 77.0544 134.135 78.3076C133.204 79.5251 132.147 81.0648 130.966 82.9268V118H116.249V83.5713C116.249 81.4945 116.231 79.5609 116.195 77.7705C116.159 75.9443 116.088 74.2435 115.98 72.668C115.873 71.0566 115.712 69.5348 115.497 68.1025C115.282 66.6702 114.996 65.2738 114.638 63.9131C116.965 63.3044 119.275 62.7493 121.566 62.248C123.894 61.7467 126.239 61.2992 128.602 60.9053C128.853 61.6572 129.086 62.4092 129.301 63.1611C129.516 63.8773 129.695 64.665 129.838 65.5244C129.981 66.348 130.106 67.2611 130.214 68.2637C130.321 69.2663 130.429 70.4121 130.536 71.7012H131.234ZM183.918 49.3574V62.1406H202.717V72.8828H183.918V99.6846C183.918 101.439 183.99 102.889 184.133 104.035C184.312 105.181 184.617 106.094 185.046 106.774C185.476 107.419 186.067 107.884 186.819 108.171C187.571 108.422 188.537 108.547 189.719 108.547C190.865 108.547 192.19 108.422 193.694 108.171C195.233 107.92 197.042 107.562 199.119 107.097C199.333 107.741 199.566 108.493 199.817 109.353C200.103 110.212 200.372 111.107 200.622 112.038C200.909 112.933 201.177 113.811 201.428 114.67C201.679 115.493 201.911 116.228 202.126 116.872C201.124 117.23 199.942 117.57 198.581 117.893C197.257 118.179 195.86 118.43 194.392 118.645C192.924 118.859 191.438 119.021 189.934 119.128C188.43 119.235 187.016 119.289 185.691 119.289C184.438 119.289 183.202 119.235 181.985 119.128C180.767 119.021 179.604 118.824 178.494 118.537C177.419 118.286 176.417 117.946 175.486 117.517C174.555 117.087 173.749 116.532 173.069 115.852C171.493 114.312 170.455 112.199 169.953 109.514C169.452 106.792 169.202 103.337 169.202 99.1475V72.8828H161.145V62.1406H169.202V49.3574H183.918Z" fill="#FFBCA2"/>
<path d="M274.247 39.582C280.693 39.582 286.135 40.5667 290.575 42.5361C295.016 44.4697 298.614 47.1911 301.371 50.7002C304.164 54.2093 306.169 58.4167 307.387 63.3223C308.604 68.1921 309.213 73.5632 309.213 79.4355C309.213 84.0905 308.837 88.4411 308.085 92.4873C307.333 96.4977 306.116 100.132 304.433 103.391C302.786 106.649 300.637 109.46 297.988 111.823C295.338 114.151 292.115 115.959 288.32 117.248C289.967 118.537 291.453 119.683 292.778 120.686C294.102 121.724 295.427 122.655 296.752 123.479C298.077 124.302 299.474 125.018 300.942 125.627C302.41 126.271 304.128 126.826 306.098 127.292C305.883 128.259 305.668 129.154 305.453 129.978C305.274 130.801 305.059 131.589 304.809 132.341C304.558 133.129 304.254 133.916 303.896 134.704C303.573 135.492 303.197 136.351 302.768 137.282C300.834 136.817 299.133 136.351 297.665 135.886C296.233 135.42 294.872 134.883 293.583 134.274C292.294 133.666 291.005 132.95 289.716 132.126C288.427 131.302 286.977 130.3 285.365 129.118C283.754 127.937 281.91 126.54 279.833 124.929C277.756 123.317 275.286 121.42 272.421 119.235C266.405 119.056 261.303 117.982 257.113 116.013C252.924 114.043 249.504 111.322 246.855 107.849C244.205 104.375 242.271 100.24 241.054 95.4414C239.872 90.6432 239.281 85.3079 239.281 79.4355C239.281 73.4199 239.908 67.9593 241.161 63.0537C242.45 58.1481 244.474 53.9587 247.231 50.4854C250.024 47.012 253.64 44.3265 258.08 42.4287C262.52 40.5309 267.909 39.582 274.247 39.582ZM274.247 50.5928C270.488 50.5928 267.336 51.2015 264.794 52.4189C262.288 53.6364 260.265 55.4626 258.725 57.8975C257.221 60.2965 256.147 63.3044 255.502 66.9209C254.858 70.5016 254.535 74.6732 254.535 79.4355C254.535 84.1979 254.858 88.3874 255.502 92.0039C256.147 95.5846 257.221 98.5924 258.725 101.027C260.265 103.426 262.288 105.235 264.794 106.452C267.336 107.67 270.488 108.278 274.247 108.278C277.971 108.278 281.086 107.688 283.593 106.506C286.135 105.288 288.158 103.48 289.662 101.081C291.202 98.682 292.294 95.6742 292.939 92.0576C293.619 88.4411 293.959 84.2337 293.959 79.4355C293.959 74.6374 293.619 70.43 292.939 66.8135C292.294 63.1969 291.202 60.1891 289.662 57.79C288.158 55.391 286.135 53.6006 283.593 52.4189C281.086 51.2015 277.971 50.5928 274.247 50.5928ZM372.317 62.1406V96.623C372.317 99.5234 372.335 101.958 372.371 103.928C372.442 105.861 372.55 107.58 372.693 109.084C372.765 109.836 372.836 110.498 372.908 111.071C372.979 111.644 373.051 112.199 373.123 112.736C373.23 113.273 373.338 113.828 373.445 114.401C373.588 114.974 373.749 115.601 373.928 116.281C371.601 116.89 369.273 117.445 366.946 117.946C364.654 118.412 362.327 118.859 359.964 119.289C359.677 118.537 359.426 117.803 359.212 117.087C359.033 116.335 358.871 115.547 358.728 114.724C358.585 113.864 358.46 112.933 358.352 111.931C358.245 110.928 358.137 109.782 358.03 108.493H357.332C356.15 110.284 354.915 111.859 353.626 113.22C352.372 114.545 351.012 115.673 349.544 116.604C348.111 117.499 346.518 118.161 344.763 118.591C343.045 119.056 341.129 119.289 339.016 119.289C334.54 119.289 331.013 118.394 328.435 116.604C325.893 114.777 324.049 112.199 322.903 108.869C322.223 106.936 321.739 104.805 321.453 102.478C321.166 100.15 321.023 97.6077 321.023 94.8506V62.1406H335.74V99.0938C335.74 102.173 336.438 104.519 337.835 106.13C339.267 107.741 341.201 108.547 343.635 108.547C344.996 108.547 346.321 108.225 347.61 107.58C348.935 106.936 350.206 106.094 351.423 105.056C352.641 104.017 353.769 102.836 354.807 101.511C355.846 100.15 356.777 98.7894 357.6 97.4287V62.1406H372.317ZM395.514 34.9092C396.731 34.9092 397.877 35.1419 398.951 35.6074C400.061 36.0729 401.01 36.7174 401.798 37.541C402.622 38.3288 403.266 39.2777 403.732 40.3877C404.197 41.4619 404.43 42.6077 404.43 43.8252C404.43 45.0785 404.197 46.2422 403.732 47.3164C403.266 48.3906 402.622 49.3395 401.798 50.1631C401.01 50.9867 400.061 51.6312 398.951 52.0967C397.877 52.5622 396.731 52.7949 395.514 52.7949C394.261 52.7949 393.097 52.5622 392.023 52.0967C390.948 51.6312 389.999 50.9867 389.176 50.1631C388.352 49.3395 387.708 48.3906 387.242 47.3164C386.777 46.2422 386.544 45.0785 386.544 43.8252C386.544 42.6077 386.777 41.4619 387.242 40.3877C387.708 39.2777 388.352 38.3288 389.176 37.541C389.999 36.7174 390.948 36.0729 392.023 35.6074C393.097 35.1419 394.261 34.9092 395.514 34.9092ZM402.818 62.1406V118H388.102V62.1406H402.818ZM431.816 72.8828C430.133 72.8828 428.647 72.8649 427.358 72.8291C426.069 72.7575 424.816 72.6501 423.598 72.5068C422.417 72.3278 421.199 72.0771 419.946 71.7549C418.728 71.4326 417.332 70.985 415.756 70.4121C416.258 68.6576 416.795 66.903 417.368 65.1484C417.941 63.3581 418.496 61.6393 419.033 59.9922C420.751 60.4577 422.22 60.8337 423.437 61.1201C424.654 61.4066 425.818 61.6214 426.928 61.7646C428.038 61.9079 429.202 61.9974 430.419 62.0332C431.637 62.069 433.105 62.0869 434.824 62.0869H462.109V70.1973L435.522 107.258H462.592V118H417.153V109.89L443.686 72.8828H431.816Z" fill="white"/>
<circle cx="186.337" cy="82.1687" r="80.8434" stroke="white" stroke-width="2.6506"/>
</svg>
